PathFileType	4	(X/Y/Z)	pose_F01_0-80.trc
DataRate	CameraRate	NumFrames	NumMarkers	Units	OrigDataRate	OrigDataStartFrame	OrigNumFrames
30	30	11	21	m	30	40	80
Frame#	Time	CHip			RHip			RKnee			RAnkle			RBigToe			RSmallToe			RHeel			LHip			LKnee			LAnkle			LBigToe			LSmallToe			LHeel			Neck			Nose			RShoulder			RElbow			RWrist			LShoulder			LElbow			LWrist			
		X1	Y1	Z1	X2	Y2	Z2	X3	Y3	Z3	X4	Y4	Z4	X5	Y5	Z5	X6	Y6	Z6	X7	Y7	Z7	X8	Y8	Z8	X9	Y9	Z9	X10	Y10	Z10	X11	Y11	Z11	X12	Y12	Z12	X13	Y13	Z13	X14	Y14	Z14	X15	Y15	Z15	X16	Y16	Z16	X17	Y17	Z17	X18	Y18	Z18	X19	Y19	Z19	X20	Y20	Z20	X21	Y21	Z21	
40	1.3333333333333333	-0.22228194473941965	1.8390538199218198	-0.5384960607383523	-0.23778945931838158	1.8349307767482466	-0.4727797896342866	-0.23946338639346698	1.6976258087529748	-0.48759597066853694													-0.20650104543855952	1.8391618315355651	-0.5986160316591093	-0.20880447735200816	1.7084392661245253	-0.5618444212955032	-0.20205503566435684	1.5824920961988356	-0.5676456227604402	-0.21723955434685893	1.547323860835063	-0.6201850976391392	-0.20685507734999606	1.559849488964421	-0.6319478249563961				-0.21363515359608698	1.9873516163541631	-0.5482529033769369	-0.21586992541389094	2.0484849809840298	-0.6153847064565585	-0.24124578219691473	1.987784305265589	-0.4797879064047614	-0.25724336591502467	1.9193722985541593	-0.40709182894727075	-0.25738370931490284	1.854774802598054	-0.3272296404391294	-0.18847105101103984	1.9895844017838733	-0.6330052553713381	-0.9111799956985125	1.8814721805673704	0.08600799547458626	-0.16243365420671657	1.9557966098993127	-0.7290365190907141
41	1.3666666666666667	-0.2226080021890871	1.838942120414526	-0.5383976786817378	-0.2382085760856122	1.8358325546074516	-0.4729045008131838	-0.23946338639346698	1.6976258087529748	-0.48759597066853694													-0.20885915539893982	1.8396169466180572	-0.596297098485527	-0.2076548804818011	1.7070727898640035	-0.5586481819287995	-0.20198645184598293	1.5828379799668393	-0.5680921590559286	-0.21775914494798745	1.5469906254915964	-0.6195579267602445	-0.20626586431616156	1.561659841092424	-0.6284038887210575				-0.2166965922754188	1.9876505752834213	-0.5496452353749901	-0.21802436080056772	2.0473099152981047	-0.6133039204863803	-0.2414461026882745	1.9861845581543154	-0.4799900717977975	-0.24791533130629007	1.9131492945684978	-0.4005162423544578	-0.253684167293408	1.8535308380780122	-0.3110676847604954	-0.1915482707095005	1.990976501564457	-0.634189692007762	-1.2892610615718079	1.8557563426108352	0.48100960647975993	-0.15766744149280112	1.9963469967510745	-0.7385217868386232
42	1.4	-0.22044842902284636	1.8412532974467952	-0.5408556568584374	-0.23703195031443036	1.8378828148407365	-0.47852341736282805	-0.23946338639346698	1.6976258087529748	-0.48759597066853694													-0.20468816333520873	1.842794887167914	-0.6011212465280333	-0.20666530031669222	1.7082384409341158	-0.5641609147608814	-0.20191786802760905	1.583183863734843	-0.5685386953514169	-0.21664769998276923	1.5472887370235813	-0.6250210031712681	-0.20538268388568587	1.560599040595987	-0.6333061601015227				-0.21559321874570836	1.9869369250203222	-0.5459999788448695	-0.22419731028347972	2.0476344923252228	-0.6065177258578086	-0.24024861490904664	1.9878989471294084	-0.47678409101253677	-0.251086528479031	1.9106904900334316	-0.38633572654387444	-0.25673901650024955	1.8507033097794552	-0.2978107507387659	-0.19096652649267654	1.9886003625095436	-0.6222518095333069	-1.1029091611474553	1.869253216551197	0.29128535037864856	-0.34127292522241776	1.9687237804630797	-0.5388256135849391
43	1.4333333333333333	-0.22244630007665261	1.838437101719258	-0.5383358838738719	-0.237886251174627	1.833584245849146	-0.4725264802325789	-0.23946338639346698	1.6976258087529748	-0.48759597066853694													-0.20753965965804183	1.8383115547753879	-0.6015507545697771	-0.2068082578572357	1.7088369247877018	-0.5641776078155714	-0.20184928420923515	1.5835297475028467	-0.5689852316469053	-0.21427509805656583	1.5477631330798445	-0.6190927659458738	-0.20398940504038449	1.5611472855362454	-0.6305549692139109				-0.21581492342128566	1.9848720182818456	-0.5457653611966711	-0.22538970340219577	2.047952739435678	-0.6011860527917071	-1.8095792592521387	1.8920097347749631	1.2836243001109242	-0.2531544344566918	1.908099133760902	-0.39227329651582826	-0.26594537389725964	1.8414364104171488	-0.3229144541249839	-0.1918886318725742	1.9881399098369321	-0.625369763173455	-0.9165572607231027	1.8827500904915586	0.10156109427753723	-0.5248784089520344	1.9411005641750847	-0.33912944033125486
44	1.4666666666666666	-0.22347381503508146	1.8402151280669585	-0.5418747027426029	-0.2398881518015804	1.8360801117655892	-0.47072388875224797	-0.23946338639346698	1.6976258087529748	-0.48759597066853694													-0.20952066324137875	1.8395949389558923	-0.5996918138994789	-0.2079044143260068	1.7098118296336577	-0.5673257659182941	-0.20178070039086124	1.5838756312708506	-0.5694317679423936	-0.21757682311527027	1.546158720934671	-0.6195596494810374	-0.20525055473204734	1.5598196845834984	-0.6332120815893902				-0.21784496009379437	1.984853060117376	-0.5438605199063189	-0.22520490522912354	2.04942429964134	-0.6010282092823764	-0.24042192914970367	1.984319255555494	-0.45083837064540466	-0.25907557128699915	1.9114694699374406	-0.40984529216677446	-0.2786440251433145	1.8430586608519337	-0.3891909752063675	-0.192603221891909	1.9865791732885345	-0.6373216599429363	-0.7302053602987503	1.8962469644319202	-0.08816316182357414	-0.708483892681651	1.9134773478870897	-0.13943326707757064
45	1.5	-0.22389845700347666	1.837609159044832	-0.5326380694317505	-0.23922298286598287	1.8331824762217437	-0.4668959026528645	-0.23946338639346698	1.6976258087529748	-0.48759597066853694													-0.21008686027354995	1.8389664896627187	-0.5991171739224086	-0.20872193069591888	1.7089048139268626	-0.5706348580992643	-0.20171211657248736	1.5842215150388543	-0.569878304237882	-0.21646702166662676	1.5480031267631424	-0.6168602998183945	-0.20606519406318657	1.5603512635607801	-0.6286724623463852				-0.21592778536667417	1.9878757935110427	-0.546618618598372	-0.22309229828238195	2.057118495671246	-0.6048811384500654	-0.23836014128161448	1.9854700551046012	-0.4529829085017261	-0.25479767955299243	1.9109266710446704	-0.3968681559448964	-0.2691657266520354	1.8557529983609296	-0.4341106019183851	-0.19193119437416387	1.9923683148746891	-0.6356274300718071	-0.5438534598743977	1.909743838372282	-0.27788741792468546	-0.8920893764112676	1.8858541315990949	0.06026290617611352
46	1.5333333333333334	-0.22569107711760023	1.835446390007875	-0.5390192437151335	-0.23924446894329893	1.8327887625490056	-0.4669683785609796	-0.23946338639346698	1.6976258087529748	-0.48759597066853694													-0.2119568752340991	1.8360020225298703	-0.5970159698524451	-0.20852011356029795	1.7102258738302594	-0.5709973450231275	-0.20164353275411345	1.584567398806858	-0.5703248405333703	-0.2162091291383188	1.5494248343191217	-0.6174268132313288	-0.2064047665375112	1.5624564592928565	-0.628051972890054				-0.21593404264904303	1.986328571727801	-0.5462699348974241	-0.22191693252273184	2.055655724620748	-0.6095511917394879	-1.8392801747581824	1.8921253120685424	1.3373271161274058	-0.2580372325933126	1.9100515744401632	-0.4066173974586556	-0.2513003400434811	1.8968996750579412	-0.49210943083186703	-0.19265469177268346	1.9920399927207002	-0.6381347637182743	-0.35750155945004514	1.9232407123126438	-0.4676116740257968	-1.0756948601408842	1.8582309153111	0.2599590794297977
47	1.5666666666666667	-0.22270557003287866	1.8390775653695186	-0.538410962376598	-0.23930475726790057	1.8341285010030703	-0.4672275490304193	-0.23946338639346698	1.6976258087529748	-0.48759597066853694													-0.20992817072247388	1.8407297581716209	-0.5996925159732784	-0.2086115612568039	1.7110236455394172	-0.5709553828846635	-0.20157494893573957	1.584913282574862	-0.5707713768288587	-0.21679196589517324	1.552658193533579	-0.6172599307527303	-0.20450995151744655	1.5639967664448187	-0.6299444820402113				-0.21785472227098523	1.9861790503640062	-0.5440746382048867	-0.22199106161781276	2.0531611266841145	-0.6091875539135198	-1.8299083725927974	1.892102362905941	1.3203176308335625	-0.25634436009418926	1.9033523817804145	-0.41668542564415306	-0.24726243373655765	1.9207079253548602	-0.5635495465606227	-0.19383047610652196	1.992069547009981	-0.6329099955360015	-0.1711496590256927	1.9367375862530054	-0.6573359301269082	-1.259300343870501	1.830607699023105	0.45965525268348195
48	1.6	-0.22268561481049656	1.8365383295771653	-0.5381350654709306	-0.2382979986630973	1.8336727590034494	-0.4723806990705242	-0.23946338639346698	1.6976258087529748	-0.48759597066853694													-0.20786040209019194	1.8382488709503428	-0.6014892899885399	-0.20991359582790728	1.7105082450172158	-0.5739545873501506	-0.20150636511736567	1.5852591663428657	-0.571217913124347	-0.21534855545502574	1.5596836497070354	-0.6187403664216348	-0.2040147117540652	1.5649622292673364	-0.6305657845853724				-0.21578233677080136	1.9853028039011567	-0.5457932866529175	-0.2220219088061643	2.050717513288481	-0.608879935462646	-0.23927798942272538	1.9843772954721093	-0.4557891964019012	-0.2553602440205393	1.902341234607673	-0.4219128003691755	-0.2462805178907856	1.9227713306160117	-0.5606820977928443	-0.19065996234473045	1.9891580058087488	-0.630802299891559	-0.1691465100988508	1.9321890345363726	-0.654821399989784	-1.2643751873064273	1.8266331937103957	0.46521870212540384
49	1.6333333333333333	-0.22063912416852818	1.8379415241868733	-0.5405145262864631	-0.23618787217091886	1.8334611487623578	-0.4747583661023825	-0.23946338639346698	1.6976258087529748	-0.48759597066853694													-0.20266404019236225	1.8390186098800283	-0.6029858170712836	-0.20963719095389874	1.7114143344828132	-0.574349036396046	-0.20142054684092695	1.5849687655929674	-0.5713583147119004	-0.21623919120772092	1.5600282339049456	-0.6217598504073598	-0.2019782473604259	1.5659295862748246	-0.6325544375945645				-0.21482130495917456	1.985308077307068	-0.5428783432133986	-0.21999578791586472	2.0502097825956755	-0.6111826251359844	-0.24137110551157218	1.983734062938477	-0.462259467141347	-0.254518146802892	1.9037773867295529	-0.427571369743096	-0.24432471788408708	1.916073501851787	-0.5622413484413354	-0.1871502965165441	1.9876152710840957	-0.618278709604755	-0.16714336117200884	1.92764048281974	-0.6523068698526597	-0.1582986881350799	1.8658563595889273	-0.6980347896779155
50	1.6666666666666667	-0.21850930319708675	1.8369222679752268	-0.5426252259823624	-0.23432429183435727	1.8325439156743404	-0.485361821827369	-0.23946338639346698	1.6976258087529748	-0.48759597066853694													-0.20042358237283875	1.8383078417241208	-0.6050153527299666	-0.2072265440953861	1.7099094502906216	-0.5767088501204414	-0.2000117988739522	1.5833682538526006	-0.5771159720698121	-0.21507753977036329	1.5604398628985938	-0.6268988215389599	-0.20058631457855153	1.565358552036245	-0.6380044729729762				-1.65947803616695	1.8901732367431348	1.0299965343451434	-0.21796029779493437	2.047517088495503	-0.6131508646836141	-1.7893017256425616	1.8917736447241904	1.247321601062582	-0.2564978595697271	1.9079516623657518	-0.44303827658325445	-0.2573046703189216	1.9091763892061895	-0.5657472551968884	-0.18894395537184605	1.9875604565441432	-0.6245682663606642	-0.16690969210813886	1.9249887530997296	-0.6530330004660408	-0.16721283797558797	1.8711466701525505	-0.7143886169974066
